<?xml version="1.0" encoding="UTF-8" standalone="no"?>
<svg
   width="1200pt"
   height="1200pt"
   version="1.1"
   viewBox="0 0 1200 1200"
   id="svg24"
   sodipodi:docname="noun-data-central-3602371-color.svg"
   inkscape:version="1.1.2 (b8e25be833, 2022-02-05)"
   xmlns:inkscape="http://www.inkscape.org/namespaces/inkscape"
   xmlns:sodipodi="http://sodipodi.sourceforge.net/DTD/sodipodi-0.dtd"
   xmlns="http://www.w3.org/2000/svg"
   xmlns:svg="http://www.w3.org/2000/svg">
  <defs
     id="defs28" />
  <sodipodi:namedview
     id="namedview26"
     pagecolor="#ffffff"
     bordercolor="#999999"
     borderopacity="1"
     inkscape:pageshadow="0"
     inkscape:pageopacity="0"
     inkscape:pagecheckerboard="0"
     inkscape:document-units="pt"
     showgrid="false"
     inkscape:zoom="0.545625"
     inkscape:cx="800"
     inkscape:cy="800.91638"
     inkscape:window-width="3440"
     inkscape:window-height="1377"
     inkscape:window-x="-8"
     inkscape:window-y="-8"
     inkscape:window-maximized="1"
     inkscape:current-layer="svg24" />
  <g
     id="g22"
     style="fill:#ff8300;fill-opacity:1">
    <path
       d="m93.75 187.5h37.5v37.5h-56.25v37.5h150v-37.5h-56.25v-37.5h37.5c14.918 0 29.227-5.9258 39.773-16.477 10.551-10.547 16.477-24.855 16.477-39.773v-37.5c0-14.918-5.9258-29.227-16.477-39.773-10.547-10.551-24.855-16.477-39.773-16.477h-112.5c-14.918 0-29.227 5.9258-39.773 16.477-10.551 10.547-16.477 24.855-16.477 39.773v37.5c0 14.918 5.9258 29.227 16.477 39.773 10.547 10.551 24.855 16.477 39.773 16.477zm-18.75-93.75c0-4.9727 1.9766-9.7422 5.4922-13.258 3.5156-3.5156 8.2852-5.4922 13.258-5.4922h112.5c4.9727 0 9.7422 1.9766 13.258 5.4922 3.5156 3.5156 5.4922 8.2852 5.4922 13.258v37.5c0 4.9727-1.9766 9.7422-5.4922 13.258-3.5156 3.5156-8.2852 5.4922-13.258 5.4922h-112.5c-4.9727 0-9.7422-1.9766-13.258-5.4922-3.5156-3.5156-5.4922-8.2852-5.4922-13.258z"
       id="path2"
       style="fill:#ff8300;fill-opacity:1" />
    <path
       d="m1106.2 37.5h-112.5c-14.918 0-29.227 5.9258-39.773 16.477-10.551 10.547-16.477 24.855-16.477 39.773v37.5c0 14.918 5.9258 29.227 16.477 39.773 10.547 10.551 24.855 16.477 39.773 16.477h37.5v37.5h-56.25v37.5h150v-37.5h-56.25v-37.5h37.5c14.918 0 29.227-5.9258 39.773-16.477 10.551-10.547 16.477-24.855 16.477-39.773v-37.5c0-14.918-5.9258-29.227-16.477-39.773-10.547-10.551-24.855-16.477-39.773-16.477zm18.75 93.75c0 4.9727-1.9766 9.7422-5.4922 13.258-3.5156 3.5156-8.2852 5.4922-13.258 5.4922h-112.5c-4.9727 0-9.7422-1.9766-13.258-5.4922-3.5156-3.5156-5.4922-8.2852-5.4922-13.258v-37.5c0-4.9727 1.9766-9.7422 5.4922-13.258 3.5156-3.5156 8.2852-5.4922 13.258-5.4922h112.5c4.9727 0 9.7422 1.9766 13.258 5.4922 3.5156 3.5156 5.4922 8.2852 5.4922 13.258z"
       id="path4"
       style="fill:#ff8300;fill-opacity:1" />
    <path
       d="m206.25 937.5h-112.5c-14.918 0-29.227 5.9258-39.773 16.477-10.551 10.547-16.477 24.855-16.477 39.773v37.5c0 14.918 5.9258 29.227 16.477 39.773 10.547 10.551 24.855 16.477 39.773 16.477h37.5v37.5h-56.25v37.5h150v-37.5h-56.25v-37.5h37.5c14.918 0 29.227-5.9258 39.773-16.477 10.551-10.547 16.477-24.855 16.477-39.773v-37.5c0-14.918-5.9258-29.227-16.477-39.773-10.547-10.551-24.855-16.477-39.773-16.477zm18.75 93.75c0 4.9727-1.9766 9.7422-5.4922 13.258-3.5156 3.5156-8.2852 5.4922-13.258 5.4922h-112.5c-4.9727 0-9.7422-1.9766-13.258-5.4922-3.5156-3.5156-5.4922-8.2852-5.4922-13.258v-37.5c0-4.9727 1.9766-9.7422 5.4922-13.258 3.5156-3.5156 8.2852-5.4922 13.258-5.4922h112.5c4.9727 0 9.7422 1.9766 13.258 5.4922 3.5156 3.5156 5.4922 8.2852 5.4922 13.258z"
       id="path6"
       style="fill:#ff8300;fill-opacity:1" />
    <path
       d="m1106.2 937.5h-112.5c-14.918 0-29.227 5.9258-39.773 16.477-10.551 10.547-16.477 24.855-16.477 39.773v37.5c0 14.918 5.9258 29.227 16.477 39.773 10.547 10.551 24.855 16.477 39.773 16.477h37.5v37.5h-56.25v37.5h150v-37.5h-56.25v-37.5h37.5c14.918 0 29.227-5.9258 39.773-16.477 10.551-10.547 16.477-24.855 16.477-39.773v-37.5c0-14.918-5.9258-29.227-16.477-39.773-10.547-10.551-24.855-16.477-39.773-16.477zm18.75 93.75c0 4.9727-1.9766 9.7422-5.4922 13.258-3.5156 3.5156-8.2852 5.4922-13.258 5.4922h-112.5c-4.9727 0-9.7422-1.9766-13.258-5.4922-3.5156-3.5156-5.4922-8.2852-5.4922-13.258v-37.5c0-4.9727 1.9766-9.7422 5.4922-13.258 3.5156-3.5156 8.2852-5.4922 13.258-5.4922h112.5c4.9727 0 9.7422 1.9766 13.258 5.4922 3.5156 3.5156 5.4922 8.2852 5.4922 13.258z"
       id="path8"
       style="fill:#ff8300;fill-opacity:1" />
    <path
       d="m162.05 889.65c-56.797-85.934-87.082-186.68-87.082-289.69 0-103.01 30.285-203.75 87.082-289.69l-31.258-20.625h0.003906c-60.84 92.059-93.277 199.97-93.277 310.31 0 110.35 32.438 218.26 93.277 310.31z"
       id="path10"
       style="fill:#ff8300;fill-opacity:1" />
    <path
       d="m600 1125c-103.02 0.16797-203.79-30.121-289.65-87.055l-20.625 31.258v-0.003906c92.055 60.84 199.96 93.277 310.31 93.277 110.34 0 218.25-32.438 310.31-93.277l-20.625-31.258v0.003906c-85.883 56.949-186.68 87.234-289.73 87.055z"
       id="path12"
       style="fill:#ff8300;fill-opacity:1" />
    <path
       d="m1037.9 310.35c56.797 85.934 87.082 186.68 87.082 289.69 0 103.01-30.285 203.75-87.082 289.69l31.258 20.625h-0.003906c60.84-92.059 93.277-199.97 93.277-310.31 0-110.35-32.438-218.26-93.277-310.31z"
       id="path14"
       style="fill:#ff8300;fill-opacity:1" />
    <path
       d="m962.61 376.88c5.4336-9.0312 7.6836-19.621 6.3984-30.082-1.2891-10.461-6.043-20.188-13.504-27.629l-74.605-74.664c-7.4414-7.4648-17.168-12.223-27.629-13.512-10.465-1.2891-21.055 0.96484-30.086 6.4062l-84.602 50.758 0.003906-0.003906c-3.0078 1.6445-6.625 1.7344-9.7148 0.24609-3.0938-1.1602-5.4531-3.7188-6.3555-6.9023l-23.926-95.625c-2.5273-10.242-8.418-19.344-16.73-25.848-8.3086-6.5-18.559-10.027-29.113-10.02h-105.48c-10.543-0.015625-20.785 3.5039-29.098 9.9922-8.3086 6.4883-14.203 15.57-16.746 25.801l-23.926 95.625c-0.97656 3.2891-3.4844 5.9023-6.7305 7.0117-3.0078 1.3828-6.4922 1.2422-9.375-0.375l-84.508-50.66c-9.0312-5.4258-19.621-7.6758-30.078-6.3867-10.461 1.2891-20.188 6.0391-27.633 13.492l-74.664 74.605c-7.4609 7.4453-12.215 17.172-13.504 27.633-1.2852 10.461 0.96484 21.051 6.3984 30.082l50.758 84.602-0.003906-0.003906c1.6523 3.0078 1.7422 6.6289 0.24609 9.7148-1.1602 3.0938-3.7188 5.4531-6.9023 6.3555l-95.625 23.926c-10.242 2.5273-19.344 8.418-25.848 16.73-6.5 8.3086-10.027 18.559-10.02 29.113v105.49-0.003906c-0.015625 10.543 3.5039 20.785 9.9922 29.098 6.4883 8.3086 15.57 14.203 25.801 16.746l95.625 23.926c3.2891 0.97656 5.9023 3.4844 7.0117 6.7305 1.3984 3.0039 1.2617 6.4961-0.375 9.375l-50.66 84.508c-5.4336 9.0312-7.6836 19.621-6.3984 30.082 1.2891 10.461 6.043 20.188 13.504 27.629l74.586 74.586v0.003906c7.4414 7.4688 17.172 12.23 27.637 13.523s21.062-0.96094 30.098-6.3984l84.602-50.758h-0.003906c3.0039-1.6602 6.6289-1.75 9.7148-0.24219 3.0938 1.1562 5.4531 3.7188 6.3555 6.8984l23.926 95.625c2.5156 10.254 8.4023 19.371 16.715 25.883s18.566 10.051 29.129 10.043h105.49-0.003906c10.543 0.015625 20.785-3.5039 29.098-9.9922 8.3086-6.4883 14.203-15.57 16.746-25.801l23.926-95.719c0.97656-3.2891 3.4844-5.9023 6.7305-7.0117 3.0039-1.3984 6.4961-1.2578 9.375 0.375l84.508 50.754c9.0273 5.4453 19.625 7.7031 30.086 6.4141 10.465-1.293 20.195-6.0586 27.625-13.539l74.605-74.586h0.003906c7.4609-7.4453 12.211-17.172 13.5-27.633 1.2891-10.461-0.96484-21.051-6.3945-30.082l-50.758-84.602v0.003906c-1.6523-3.0078-1.7422-6.6289-0.24219-9.7148 1.1562-3.0938 3.7188-5.4531 6.8984-6.3555l95.625-23.926c10.254-2.5156 19.371-8.4023 25.883-16.715s10.051-18.566 10.043-29.129v-105.48c0.015625-10.543-3.5039-20.785-9.9922-29.098-6.4883-8.3086-15.57-14.203-25.801-16.746l-95.719-23.926c-3.2891-0.97656-5.9023-3.4844-7.0117-6.7305-1.3984-3.0039-1.2617-6.4961 0.375-9.375zm-85.648 108.66c5.7266 14.051 17.75 24.574 32.438 28.387l95.719 23.945c4.3125 1.0703 7.3555 4.9297 7.3867 9.375v105.49c-0.03125 4.4453-3.0742 8.3047-7.3867 9.375l-95.625 23.945v-0.003906c-14.684 3.957-26.695 14.508-32.516 28.555-5.8203 14.051-4.7852 30.004 2.7969 43.184l50.758 84.602h-0.003906c2.3086 3.832 1.707 8.7422-1.4609 11.906l-74.605 74.605c-3.1602 3.1641-8.0742 3.7695-11.906 1.4609l-84.676-50.66c-13.176-7.5938-29.125-8.6367-43.176-2.8203-14.051 5.8125-24.602 17.82-28.562 32.5l-23.945 95.719h0.003906c-1.0703 4.3164-4.9297 7.3555-9.375 7.3867h-105.56c-4.4453-0.03125-8.3047-3.0703-9.375-7.3867l-23.945-95.625c-3.8633-14.805-14.523-26.898-28.727-32.586-5.9414-2.4688-12.312-3.7422-18.75-3.75-8.5195-0.03125-16.887 2.2578-24.203 6.6172l-84.602 50.758c-3.8359 2.3164-8.7578 1.7031-11.906-1.4844l-74.586-74.57v0.003906c-3.1836-3.1602-3.7969-8.0859-1.4844-11.926l50.758-84.602c7.6133-13.195 8.6484-29.18 2.8086-43.25-5.8438-14.07-17.902-24.621-32.621-28.543l-95.719-23.945v0.003906c-4.3164-1.0703-7.3555-4.9297-7.3867-9.375v-105.56c0.03125-4.4453 3.0703-8.3047 7.3867-9.375l95.625-23.945c14.684-3.957 26.695-14.508 32.516-28.555 5.8203-14.047 4.7852-30.004-2.7969-43.184l-50.758-84.602v0.003906c-2.3047-3.8359-1.7031-8.7461 1.4648-11.906l74.605-74.605v-0.003906c3.1641-3.1602 8.0703-3.7617 11.906-1.4609l84.602 50.758c13.188 7.6094 29.168 8.6562 43.234 2.8242 14.066-5.8281 24.621-17.871 28.559-32.582l23.945-95.719h-0.003906c1.0703-4.3164 4.9297-7.3555 9.375-7.3867h105.49c4.4453 0.03125 8.3047 3.0703 9.375 7.3867l23.945 95.625c3.957 14.684 14.504 26.695 28.555 32.516 14.047 5.8203 30 4.7852 43.184-2.7969l84.602-50.758h-0.003906c3.8398-2.2852 8.7383-1.6836 11.906 1.4648l74.605 74.605c3.168 3.1602 3.7734 8.0742 1.4648 11.906l-50.605 84.656c-7.7266 13.203-8.7422 29.281-2.7383 43.352z"
       id="path16"
       style="fill:#ff8300;fill-opacity:1" />
    <path
       d="m600 393.75c-54.699 0-107.16 21.73-145.84 60.41-38.68 38.68-60.41 91.141-60.41 145.84s21.73 107.16 60.41 145.84c38.68 38.68 91.141 60.41 145.84 60.41s107.16-21.73 145.84-60.41c38.68-38.68 60.41-91.141 60.41-145.84-0.066406-54.68-21.816-107.11-60.48-145.77-38.664-38.664-91.09-60.414-145.77-60.48zm118.22 187.5c-1.1445-26.75-5.5508-53.258-13.125-78.938 7.2812-4.2852 14.289-9.0195 20.98-14.176 23.176 25.98 37.699 58.516 41.57 93.113zm-99.469-144.56c17.316 11.395 30.816 27.727 38.758 46.875-12.512 4.5547-25.523 7.5938-38.758 9.0547zm66.02 17.645c4.3516 2.5312 8.5859 5.2305 12.676 8.1367-2.043 1.4609-4.0703 2.9453-6.168 4.3125-2.0664-4.293-4.2227-8.4766-6.5078-12.449zm-103.52-17.645v55.93c-13.234-1.4727-26.246-4.5234-38.758-9.0938 7.9453-19.137 21.445-35.449 38.758-46.836zm-72.523 30.188c-2.1016-1.3672-4.125-2.8516-6.168-4.3125 4.0859-2.9062 8.3242-5.625 12.676-8.1367-2.2891 3.8789-4.4453 8.0625-6.5078 12.449zm72.523 63.508v50.867h-61.875c1.0898-21.172 4.4727-42.164 10.086-62.605 16.68 6.1445 34.09 10.09 51.789 11.738zm0 88.367v50.867c-17.73 1.6406-35.172 5.5859-51.883 11.738-5.582-20.445-8.9336-41.438-9.9922-62.605zm0 88.633v55.93c-17.316-11.395-30.816-27.727-38.758-46.875 12.512-4.5547 25.523-7.5938 38.758-9.0547zm-66.02 38.289c-4.3516-2.5312-8.5859-5.2305-12.676-8.1367 2.043-1.4609 4.0703-2.9453 6.168-4.3125 2.0664 4.2891 4.2227 8.4727 6.5078 12.445zm103.52 17.641v-55.93c13.234 1.4727 26.246 4.5234 38.758 9.0938-7.9453 19.137-21.445 35.449-38.758 46.836zm72.523-30.188c2.1016 1.3672 4.125 2.8516 6.168 4.3125-4.0859 2.9062-8.3242 5.625-12.676 8.1367 2.2891-3.8789 4.4453-8.0625 6.5078-12.449zm-72.523-63.508v-50.867h61.969c-1.0898 21.172-4.4727 42.164-10.086 62.605-16.711-6.1523-34.152-10.098-51.883-11.738zm0-88.367v-50.867c17.73-1.6406 35.172-5.5859 51.883-11.738 5.6133 20.441 8.9961 41.434 10.086 62.605zm-144.73-93.113c6.6914 5.1562 13.699 9.8906 20.98 14.176-7.5742 25.68-11.98 52.188-13.125 78.938h-49.52c3.8945-34.605 18.457-67.148 41.664-93.113zm-41.664 130.61h49.52c1.1445 26.75 5.5508 53.258 13.125 78.938-7.2812 4.2852-14.289 9.0195-20.98 14.176-23.207-25.965-37.77-58.508-41.664-93.113zm293.62 93.113c-6.6914-5.1562-13.699-9.8906-20.98-14.176 7.5742-25.68 11.98-52.188 13.125-78.938h49.426c-3.8711 34.598-18.395 67.133-41.57 93.113z"
       id="path18"
       style="fill:#ff8300;fill-opacity:1" />
    <path
       d="m600 75c103.02-0.16797 203.79 30.121 289.65 87.055l20.625-31.258v0.003906c-92.055-60.84-199.96-93.277-310.31-93.277-110.34 0-218.25 32.438-310.31 93.277l20.625 31.258v-0.003906c85.883-56.949 186.68-87.234 289.73-87.055z"
       id="path20"
       style="fill:#ff8300;fill-opacity:1" />
  </g>
</svg>
